# xmcd CD database file
#
# Track frame offsets:
#	225
#	14316
#	33519
#	69123
#	91996
#	105822
#	120756
#	137567
#	159857
#	176663
#	198933
#
# Disc length: 3088 seconds
#
# Revision: 3
# Processed by: cddbd v1.5.2PL0 Copyright (c) Steve Scherf et al.
# Submitted via: CDex 1.70
#
DISCID=750c0d0b
DTITLE=Sas, Julian - Where will it end!?
DYEAR=1996
DGENRE=Blues Rock
TTITLE0=Turpentine Moan
TTITLE1=Honey Babe
TTITLE2=Make Up Your Mind
TTITLE3=Goin' Down
TTITLE4=Tryin' To Do Right
TTITLE5=Travelling Home
TTITLE6=Home Feeling
TTITLE7=Voodoo Love
TTITLE8=I Don't Know
TTITLE9=Stranger Blues
TTITLE10=Serves Me Right To Suffer
EXTD=YEAR: 1996
EXTT0=
EXTT1=
EXTT2=
EXTT3=
EXTT4=
EXTT5=
EXTT6=
EXTT7=
EXTT8=
EXTT9=
EXTT10=
PLAYORDER=
